<!DOCTYPE svg PUBLIC "-//W3C//DTD SVG 1.1//EN" "http://www.w3.org/Graphics/SVG/1.1/DTD/svg11.dtd">
<!-- Uploaded to: SVG Repo, www.svgrepo.com, Transformed by: SVG Repo Mixer Tools -->
<svg fill="#6600ff" version="1.1" id="Capa_1" xmlns="http://www.w3.org/2000/svg" xmlns:xlink="http://www.w3.org/1999/xlink" width="800px" height="800px" viewBox="-4.57 -4.57 54.88 54.88" xml:space="preserve" stroke="#6600ff">
<g id="SVGRepo_bgCarrier" stroke-width="0" transform="translate(0,0), scale(1)">
<path transform="translate(-4.57, -4.57), scale(1.715)" d="M16,25.86656869120068C18.027002350261732,25.512067627783996,20.03820280275614,25.902596219948354,22.02874293265607,25.38090711407388C24.761499344049753,24.66469485217672,28.132218478703315,24.60076591687302,29.727039108450047,22.2689287083528C31.31228941459299,19.951084569812146,31.078171275667543,16.516880851704848,29.801857726503357,14.015592442122008C28.59295691950761,11.64641789339612,25.137854767286804,11.597235369631651,23.300403713669873,9.674164172549363C21.60568463110327,7.900475862096551,21.99650426794599,4.268459250569775,19.690104218569363,3.4326591526469343C17.418079674990842,2.609316152580977,15.309362356628327,5.097376703360844,13.052093052170287,5.960350926343379C11.014421851065142,6.739370832384141,8.930735575518137,7.126305419380076,7.0662578883679235,8.258868394203125C4.5240900986622385,9.803089134548431,0.986007571228991,10.853354112651393,0.2518561503443948,13.735758743709084C-0.47062405660556605,16.572340183340238,2.182364647690192,19.108566754709745,3.6591160091148343,21.63589287724021C4.992681870379793,23.91816999262295,5.943981339001196,26.899445578865514,8.444457538565068,27.75665355429839C10.951045355565038,28.615956701526915,13.389827574088542,26.323059972805286,16,25.86656869120068" fill="#7ed0ec" strokewidth="0"/>
</g>
<g id="SVGRepo_tracerCarrier" stroke-linecap="round" stroke-linejoin="round"/>
<g id="SVGRepo_iconCarrier"> <g> <g> <path d="M17.627,27.652c-0.375-0.151-0.805-0.063-1.088,0.224l-1.442,1.457l-3.434-3.396c-0.743-0.733-2.124-0.543-2.858,0.2 c-0.735,0.744-0.911,2.127-0.168,2.861l3.435,3.396l-1.44,1.457c-0.285,0.288-0.368,0.718-0.211,1.091 c0.157,0.373,0.524,0.614,0.928,0.612l5.849-0.033c0.291-0.001,0.568-0.118,0.772-0.324c0.204-0.207,0.317-0.484,0.315-0.775 l-0.034-5.85C18.248,28.168,18.002,27.805,17.627,27.652z"/> <path d="M21.751,23.831c-0.403-1.088-0.624-2.263-0.624-3.489c0-0.185,0.005-0.371,0.015-0.554 c-1.595,0.001-3.392,0.004-5.145,0.006l-8.295,0.007c-2.017,0-3.659-1.641-3.659-3.659c0-2.019,1.642-3.66,3.659-3.66 c0.119,0,0.235,0.008,0.352,0.019c0.979,0.091,1.882-0.548,2.132-1.502c0.647-2.473,2.883-4.201,5.436-4.201 c2.299,0,4.344,1.377,5.212,3.509c0.227,0.558,0.69,0.985,1.265,1.167c0.575,0.181,1.2,0.096,1.706-0.23 c0.732-0.474,1.579-0.724,2.446-0.724c0.578,0,1.13,0.11,1.638,0.308c1.039-0.362,2.152-0.56,3.313-0.56 c0.804,0,1.586,0.095,2.337,0.274c-1.512-2.438-4.213-4.065-7.288-4.065c-0.917,0-1.823,0.146-2.684,0.433 c-1.78-2.575-4.716-4.154-7.944-4.154c-3.859,0-7.296,2.294-8.828,5.737C2.974,8.944,0,12.203,0,16.144 c0,4.248,3.456,7.703,7.702,7.703l8.3-0.009C17.979,23.836,20.013,23.833,21.751,23.831z"/> <path d="M29.885,28.881c-5.453,0.728-9.284,5.738-8.556,11.191l0.044,0.334c0.289,2.162,2.133,3.776,4.314,3.776h11.027 c2.182,0,4.027-1.615,4.316-3.776l0.044-0.334c0.108-0.839,0.116-1.755,0-2.635C40.35,31.985,35.34,28.155,29.885,28.881z"/> <circle cx="31.201" cy="20.342" r="7.041"/> <path d="M45.229,8.261l-3.222-3.223l1.524-1.523c0.285-0.286,0.246-0.841,0.092-1.215s-0.582-0.68-0.986-0.68l-5.912-0.063 c-0.289,0-0.568,0.115-0.773,0.319c-0.205,0.206-0.32,0.484-0.32,0.774v5.849c0,0.405,0.37,0.896,0.744,1.049 c0.373,0.155,0.93,0.194,1.215-0.092l1.559-1.558l3.223,3.223c0.738,0.74,2.027,0.648,2.768-0.091 C45.877,10.289,45.969,9,45.229,8.261z"/> </g> </g> </g>
</svg>